<svg width="50" height="50" viewBox="0 0 50 50" fill="none" xmlns="http://www.w3.org/2000/svg">
<circle cx="25" cy="25" r="25" fill="black"/>
<path d="M25 11C26.0625 11 27 11.9375 27 13V21.5L33.9375 17.3125C34.875 16.75 36.125 17.0625 36.6875 18C37.25 18.9375 36.9375 20.1875 36 20.75L28.875 25L36 29.3125C36.9375 29.875 37.25 31.125 36.6875 32.0625C36.125 33 34.875 33.3125 33.9375 32.75L27 28.5625V37C27 38.125 26.0625 39 25 39C23.875 39 23 38.125 23 37V28.5625L16 32.75C15.0625 33.3125 13.8125 33 13.25 32.0625C12.6875 31.125 13 29.875 13.9375 29.3125L21.0625 25L13.9375 20.75C13 20.1875 12.6875 18.9375 13.25 18C13.8125 17.0625 15.0625 16.75 16 17.3125L23 21.5V13C23 11.9375 23.875 11 25 11Z" fill="#F1FF9F"/>
</svg>
