<svg width="17" height="16" viewBox="0 0 17 16" fill="none" xmlns="http://www.w3.org/2000/svg">
<path d="M15.5312 3.07812C16.1406 2.51562 16.1406 1.53125 15.5312 0.96875C14.9688 0.359375 13.9844 0.359375 13.4219 0.96875L8.5 5.89062L3.53125 0.96875C2.96875 0.359375 1.98438 0.359375 1.42188 0.96875C0.8125 1.53125 0.8125 2.51562 1.42188 3.07812L6.34375 8L1.42188 12.9688C0.8125 13.5312 0.8125 14.5156 1.42188 15.0781C1.98438 15.6875 2.96875 15.6875 3.53125 15.0781L8.5 10.1562L13.4219 15.0781C13.9844 15.6875 14.9688 15.6875 15.5312 15.0781C16.1406 14.5156 16.1406 13.5312 15.5312 12.9688L10.6094 8L15.5312 3.07812Z" fill="black"/>
</svg>
